<svg xmlns="http://www.w3.org/2000/svg" width="55" height="55" viewBox="0 0 512 512"><g fill-rule="evenodd" clip-rule="evenodd" fill="#ffffff"><path d="M425.614 86.349C382.172 42.901 322.253 16.07 255.96 16.07c-66.292 0-126.209 26.831-169.652 70.278C42.865 129.793 16.029 189.707 16.029 256c0 66.29 26.836 126.209 70.279 169.652 43.443 43.447 103.359 70.276 169.652 70.276 66.293 0 126.212-26.829 169.654-70.276C469.057 382.209 495.896 322.29 495.896 256c0-66.292-26.838-126.206-70.282-169.651zm-13.149 326.15c-40.121 39.993-95.394 64.702-156.505 64.702-61.109 0-116.379-24.709-156.367-64.702-39.991-40.117-64.833-95.385-64.833-156.498 0-61.111 24.842-116.379 64.833-156.367 39.988-39.988 95.258-64.835 156.367-64.835 61.111 0 116.384 24.847 156.505 64.835 39.988 39.988 64.698 95.256 64.698 156.367 0 61.113-24.71 116.381-64.698 156.498z"/><path d="M276 187.316c0-9.433 4.537-13.316 9.061-13.316H314v-43h-39.307C232.58 131 222 164.729 222 184.925V204h-24v48h24v126h54V252h32.705l1.595-18.752L313.225 204H276v-16.684z"/></g></svg>
